<svg xmlns="http://www.w3.org/2000/svg" viewBox="0 0 1400 900" role="img" aria-labelledby="title desc">
  <title id="title">Visual institucional premium</title>
  <desc id="desc">Escena showroom con iluminación elegante y silueta automotriz.</desc>
  <defs>
    <linearGradient id="bg" x1="0" y1="0" x2="1" y2="1">
      <stop offset="0%" stop-color="#131417"/>
      <stop offset="100%" stop-color="#08090b"/>
    </linearGradient>
    <radialGradient id="redAccent" cx="0.82" cy="0.16" r="0.7">
      <stop offset="0%" stop-color="#a00000" stop-opacity="0.42"/>
      <stop offset="100%" stop-color="#a00000" stop-opacity="0"/>
    </radialGradient>
    <linearGradient id="glass" x1="0" y1="0" x2="1" y2="1">
      <stop offset="0%" stop-color="#a9b8d1" stop-opacity="0.45"/>
      <stop offset="100%" stop-color="#1f2731" stop-opacity="0.08"/>
    </linearGradient>
  </defs>

  <rect width="1400" height="900" fill="url(#bg)"/>
  <rect width="1400" height="900" fill="url(#redAccent)"/>

  <g stroke="#ffffff" stroke-opacity="0.08" fill="none">
    <path d="M60 140h1280"/>
    <path d="M60 360h1280"/>
    <path d="M60 580h1280"/>
    <path d="M60 800h1280"/>
  </g>

  <g transform="translate(160 380)">
    <rect x="0" y="0" width="1080" height="330" rx="22" fill="#0d0e12" stroke="#ffffff" stroke-opacity="0.1"/>
    <path d="M164 240h760c53 0 89-10 107-31 16-19 15-39-1-58-14-16-39-26-74-28l-95-7c-28-2-49-12-63-29l-57-69c-22-26-51-39-88-39H464c-43 0-78 11-105 33l-107 88c-18 15-37 24-58 27l-68 11c-37 6-65 20-83 42-15 19-18 39-8 60 11 25 34 39 68 43z" fill="#161922"/>
    <path d="M286 76h437c29 0 53 8 71 25l54 50H233l53-47c15-13 31-20 50-20z" fill="url(#glass)"/>
    <ellipse cx="355" cy="240" rx="72" ry="72" fill="#090b0f"/>
    <ellipse cx="786" cy="240" rx="72" ry="72" fill="#090b0f"/>
    <ellipse cx="355" cy="240" rx="43" ry="43" fill="#242934"/>
    <ellipse cx="786" cy="240" rx="43" ry="43" fill="#242934"/>
    <path d="M912 182h88c16 0 27 7 34 22l-116-3z" fill="#b50000"/>
    <path d="M174 182h72c12 0 21 6 27 19l-96-3z" fill="#b8c8eb"/>
  </g>

  <g font-family="Arial, sans-serif" fill="#f5f5f5">
    <text x="126" y="122" font-size="28" letter-spacing="5" fill-opacity="0.62">SHOWROOM EXPERIENCE</text>
    <text x="126" y="182" font-size="62" font-weight="700">Confianza. Estilo. Rendimiento.</text>
    <text x="126" y="232" font-size="28" fill-opacity="0.86">Visual institucional para sección Nosotros</text>
    <rect x="126" y="252" width="286" height="6" fill="#a00000"/>
  </g>
</svg>
